<svg width="15" height="14" viewBox="0 0 15 14" fill="none" xmlns="http://www.w3.org/2000/svg">
<path id="Vector" d="M14.3737 7H0.257452V13.3C0.257452 13.4857 0.331813 13.6637 0.464179 13.795C0.596544 13.9263 0.776071 14 0.963264 14H13.6679C13.8551 14 14.0346 13.9263 14.167 13.795C14.2993 13.6637 14.3737 13.4857 14.3737 13.3V7ZM3.78651 1.4H0.963264C0.776071 1.4 0.596544 1.47375 0.464179 1.60503C0.331813 1.7363 0.257452 1.91435 0.257452 2.1V5.6H14.3737V2.1C14.3737 1.91435 14.2993 1.7363 14.167 1.60503C14.0346 1.47375 13.8551 1.4 13.6679 1.4H10.8446V0H9.43301V1.4H5.19813V0H3.78651V1.4Z" fill="#8A6CC8"/>
</svg>
